# xmcd
#
# Track frame offsets:
#	150
#	14755
#	29605
#	44215
#	61552
#	74722
#	87035
#	100925
#	113707
#	130000
#	141622
#	154395
#	170205
#	184615
#	206702
#	219182
#	236467
#	249800
#
# Disc length: 3524
#
# Revision: 2
# Processed by: cddbd v1.5.1PL0 Copyright (c) Steve Scherf et al.
# Submitted via: VisiTrax 2.9.5.181 - For more info visit www.synapsa.com
# Normalized: r1:DSETVAR1
#
DISCID=0a0dc212
DTITLE=Various Artist - No. 1 Country Hits of the 70's and 80's
DYEAR=1998
DGENRE=Country
TTITLE0=Eddie Rabbitt - I Love A Rainy Night
TTITLE1=Eddie Rabbitt - Drivin' My Life Away
TTITLE2=Bellamy Brothers - If I Said You Had a Beautiful Body
TTITLE3=Bellamy Brothers - When I'm Away From You
TTITLE4=Crystal Gayle - Talkin' In Your Sleep
TTITLE5=Crystal Gayle - Don't It Make My Brown Eyes Blue
TTITLE6=The Gatlin Brothers - Houston (Means I'm One Day Closer To You)
TTITLE7=The Gatlin Brothers - All The Gold in California
TTITLE8=Mickey Gilley - Stand By Me
TTITLE9=The Gatlin Brothers - She's Pulling Me Back Again
TTITLE10=Janie Fricke - He's A Heartache
TTITLE11=Janie Fricke - Always Have, Always Will
TTITLE12=Dan Seals - Bop
TTITLE13=Dan Seals - You Still Move Me
TTITLE14=Eddy Raven - Bayou Boys
TTITLE15=Eddy Raven - Joe Knows How To Live
TTITLE16=Lynne Anderson - How Can I Unlove You
TTITLE17=Lynne Anderson - Rose Garden
EXTD=
EXTT0=
EXTT1=
EXTT2=
EXTT3=
EXTT4=
EXTT5=
EXTT6=
EXTT7=
EXTT8=
EXTT9=
EXTT10=
EXTT11=
EXTT12=
EXTT13=
EXTT14=
EXTT15=
EXTT16=
EXTT17=
PLAYORDER=
